<?xml version="1.0" encoding="utf-8"?>

<!-- License Agreement at http://iconmonstr.com/license/ -->

<!DOCTYPE svg PUBLIC "-//W3C//DTD SVG 1.1//EN" "http://www.w3.org/Graphics/SVG/1.1/DTD/svg11.dtd">
<svg version="1.1" xmlns="http://www.w3.org/2000/svg" xmlns:xlink="http://www.w3.org/1999/xlink" x="0px" y="0px"
	 width="64px" height="64px" viewBox="0 0 512 512" style="enable-background:new 0 0 512 512;" xml:space="preserve">
<path id="cpu-6-icon" d="M221.667,84.333h-34.333V50h34.333V84.333z M84.333,290.334H50v34.333h34.333V290.334z M84.333,238.833H50
	v34.333h34.333V238.833z M84.333,187.333H50v34.333h34.333V187.333z M84.333,101.5c0-9.463,7.695-17.167,17.167-17.167h68.667V50
	H101.5C73.051,50,50,73.06,50,101.5v68.667h34.333V101.5z M273.166,50h-34.333v34.333h34.333V50z M324.666,50h-34.333v34.333h34.333
	V50z M267.5,249.303c0-5.591-3.672-6.806-9.254-6.806h-7.979v13.604h7.979C263.862,256.101,267.5,254.911,267.5,249.303z
	 M118.667,118.667h274.667v274.667H118.667V118.667z M291.055,266.227c0,16.244,9.404,24.107,25.531,24.107
	c15.709,0,25.582-7.846,25.582-24.107V229.68h-15.574v36.546c0,8.197-2.766,10.595-10.008,10.595
	c-7.594,0-10.008-3.621-10.008-10.595V229.68h-15.523V266.227z M234.692,289.076h15.574v-20.134h11.366
	c13.529,0,21.022-8.147,21.022-19.64c0-11.676-7.694-19.623-21.022-19.623h-26.94V289.076z M170.519,259.621
	c0,17.334,11.081,30.713,29.22,30.713c14.149,0,24.845-8.198,26.454-26.119h-15.122c-2.531,18.826-24.979,16.529-24.979-4.594
	c0-9.656,3.889-17.678,13.646-17.678c5.264,0,9.891,3.185,10.863,9.832h15.122c-1.542-15.825-12.523-23.428-25.985-23.428
	C181.717,228.348,170.519,241.859,170.519,259.621z M427.666,273.167H462v-34.333h-34.334V273.167z M84.333,410.5v-68.666H50V410.5
	c0,28.433,23.051,51.5,51.5,51.5h68.667v-34.333H101.5C92.028,427.667,84.333,419.955,84.333,410.5z M427.666,410.5
	c0,9.455-7.694,17.167-17.166,17.167h-68.667V462H410.5c28.449,0,51.5-23.067,51.5-51.5v-68.666h-34.334V410.5z M427.666,324.667
	H462v-34.333h-34.334V324.667z M427.666,221.667H462v-34.333h-34.334V221.667z M410.5,50h-68.667v34.333H410.5
	c9.472,0,17.166,7.703,17.166,17.167v68.667H462V101.5C462,73.06,438.949,50,410.5,50z M187.333,462h34.333v-34.333h-34.333V462z
	 M290.333,462h34.333v-34.333h-34.333V462z M238.833,462h34.333v-34.333h-34.333V462z"/>
</svg>
