<?xml version="1.0" encoding="utf-8"?>

<!-- License Agreement at http://iconmonstr.com/license/ -->

<!DOCTYPE svg PUBLIC "-//W3C//DTD SVG 1.1//EN" "http://www.w3.org/Graphics/SVG/1.1/DTD/svg11.dtd">
<svg version="1.1" xmlns="http://www.w3.org/2000/svg" xmlns:xlink="http://www.w3.org/1999/xlink" x="0px" y="0px"
	 width="64px" height="64px" viewBox="0 0 512 512" style="enable-background:new 0 0 512 512;" xml:space="preserve">
<path id="calculator-3-icon" d="M462,171v-46c0-41.422-33.578-75-75-75H125c-41.422,0-75,33.578-75,75v46h192.666v30H50v110.666
	h61.501v30H50V387c0,41.421,33.578,75,75,75h262c41.422,0,75-33.579,75-75v-45.334H336.501v-30H462V201h-59.334v-30H462z
	 M176.501,351.666c0,9.665-7.835,17.5-17.5,17.5s-17.5-7.835-17.5-17.5v-50c0-9.665,7.835-17.5,17.5-17.5s17.5,7.835,17.5,17.5
	V351.666z M241.501,351.666c0,9.665-7.835,17.5-17.5,17.5s-17.5-7.835-17.5-17.5v-50c0-9.665,7.835-17.5,17.5-17.5
	s17.5,7.835,17.5,17.5V351.666z M306.501,351.666c0,9.665-7.835,17.5-17.5,17.5s-17.5-7.835-17.5-17.5v-50
	c0-9.665,7.835-17.5,17.5-17.5s17.5,7.835,17.5,17.5V351.666z M307.666,211c0,9.665-7.835,17.5-17.5,17.5s-17.5-7.835-17.5-17.5v-50
	c0-9.665,7.835-17.5,17.5-17.5s17.5,7.835,17.5,17.5V211z M372.666,211c0,9.665-7.835,17.5-17.5,17.5s-17.5-7.835-17.5-17.5v-50
	c0-9.665,7.835-17.5,17.5-17.5s17.5,7.835,17.5,17.5V211z"/>
</svg>
