<?xml version="1.0" encoding="utf-8"?>

<!-- License Agreement at http://iconmonstr.com/license/ -->

<!DOCTYPE svg PUBLIC "-//W3C//DTD SVG 1.1//EN" "http://www.w3.org/Graphics/SVG/1.1/DTD/svg11.dtd">
<svg version="1.1" xmlns="http://www.w3.org/2000/svg" xmlns:xlink="http://www.w3.org/1999/xlink" x="0px" y="0px"
	 width="64px" height="64px" viewBox="0 0 512 512" style="enable-background:new 0 0 512 512;" xml:space="preserve">
<path id="cpu-3-icon" d="M426.174,121.652c0-19.785-16.041-35.826-35.826-35.826H121.652c-19.785,0-35.826,16.041-35.826,35.826
	v268.695c0,19.785,16.041,35.826,35.826,35.826h268.695c19.785,0,35.826-16.041,35.826-35.826V121.652z M390.348,376.913
	c0,7.417-6.018,13.435-13.435,13.435H135.087c-7.417,0-13.435-6.018-13.435-13.435V135.087c0-7.417,6.018-13.435,13.435-13.435
	h241.826c7.417,0,13.435,6.018,13.435,13.435V376.913z M229.13,444.087V462h-17.913v-17.913H229.13z M264.957,444.087V462h-17.914
	v-17.913H264.957z M193.304,444.087V462h-17.913v-17.913H193.304z M300.783,444.087V462h-17.914v-17.913H300.783z M336.609,444.087
	V462h-17.914v-17.913H336.609z M229.13,50v17.913h-17.913V50H229.13z M264.957,50v17.913h-17.914V50H264.957z M193.304,50v17.913
	h-17.913V50H193.304z M300.783,50v17.913h-17.914V50H300.783z M336.609,50v17.913h-17.914V50H336.609z M444.087,282.869H462v17.914
	h-17.913V282.869z M444.087,211.217H462v17.913h-17.913V211.217z M444.087,175.391H462v17.913h-17.913V175.391z M444.087,247.043
	H462v17.914h-17.913V247.043z M444.087,318.695H462v17.914h-17.913V318.695z M50,282.869h17.913v17.914H50V282.869z M50,211.217
	h17.913v17.913H50V211.217z M50,175.391h17.913v17.913H50V175.391z M50,247.043h17.913v17.914H50V247.043z M50,318.695h17.913
	v17.914H50V318.695z M354.521,354.521H157.479V157.478h197.043V354.521z"/>
</svg>
